<?xml version="1.0" encoding="utf-8"?>
<!-- Generated by IcoMoon.io -->
<!DOCTYPE svg PUBLIC "-//W3C//DTD SVG 1.1//EN" "http://www.w3.org/Graphics/SVG/1.1/DTD/svg11.dtd">

<svg version="1.1" xmlns="http://www.w3.org/2000/svg" xmlns:xlink="http://www.w3.org/1999/xlink" width="719" height="80" viewBox="0 0 719 80">
<defs>
<g id="icon-search">
	<path class="path1" d="M20.571 14.857q0-3.304-2.348-5.652t-5.652-2.348-5.652 2.348-2.348 5.652 2.348 5.652 5.652 2.348 5.652-2.348 2.348-5.652zM29.714 29.714q0 0.929-0.679 1.607t-1.607 0.679q-0.964 0-1.607-0.679l-6.125-6.107q-3.196 2.214-7.125 2.214-2.554 0-4.884-0.991t-4.018-2.679-2.679-4.018-0.991-4.884 0.991-4.884 2.679-4.018 4.018-2.679 4.884-0.991 4.884 0.991 4.018 2.679 2.679 4.018 0.991 4.884q0 3.929-2.214 7.125l6.125 6.125q0.661 0.661 0.661 1.607z" />
</g>
<g id="icon-heart">
	<path class="path1" d="M16 29.714q-0.464 0-0.786-0.321l-11.143-10.75q-0.179-0.143-0.491-0.464t-0.991-1.17-1.214-1.741-0.955-2.161-0.42-2.464q0-3.929 2.268-6.143t6.268-2.214q1.107 0 2.259 0.384t2.143 1.036 1.705 1.223 1.357 1.214q0.643-0.643 1.357-1.214t1.705-1.223 2.143-1.036 2.259-0.384q4 0 6.268 2.214t2.268 6.143q0 3.946-4.089 8.036l-11.125 10.714q-0.321 0.321-0.786 0.321z" />
</g>
<g id="icon-check">
	<path class="path1" d="M29.839 10.107q0 0.714-0.5 1.214l-15.357 15.357q-0.5 0.5-1.214 0.5t-1.214-0.5l-8.893-8.893q-0.5-0.5-0.5-1.214t0.5-1.214l2.429-2.429q0.5-0.5 1.214-0.5t1.214 0.5l5.25 5.268 11.714-11.732q0.5-0.5 1.214-0.5t1.214 0.5l2.429 2.429q0.5 0.5 0.5 1.214z" />
</g>
<g id="icon-times">
	<path class="path1" d="M23.179 23.607q0 0.714-0.5 1.214l-2.429 2.429q-0.5 0.5-1.214 0.5t-1.214-0.5l-5.25-5.25-5.25 5.25q-0.5 0.5-1.214 0.5t-1.214-0.5l-2.429-2.429q-0.5-0.5-0.5-1.214t0.5-1.214l5.25-5.25-5.25-5.25q-0.5-0.5-0.5-1.214t0.5-1.214l2.429-2.429q0.5-0.5 1.214-0.5t1.214 0.5l5.25 5.25 5.25-5.25q0.5-0.5 1.214-0.5t1.214 0.5l2.429 2.429q0.5 0.5 0.5 1.214t-0.5 1.214l-5.25 5.25 5.25 5.25q0.5 0.5 0.5 1.214z" />
</g>
<g id="icon-home">
	<path class="path1" d="M25.143 17.714v8.571q0 0.464-0.339 0.804t-0.804 0.339h-6.857v-6.857h-4.571v6.857h-6.857q-0.464 0-0.804-0.339t-0.339-0.804v-8.571q0-0.018 0.009-0.054t0.009-0.054l10.268-8.464 10.268 8.464q0.018 0.036 0.018 0.107zM29.125 16.482l-1.107 1.321q-0.143 0.161-0.375 0.196h-0.054q-0.232 0-0.375-0.125l-12.357-10.304-12.357 10.304q-0.214 0.143-0.429 0.125-0.232-0.036-0.375-0.196l-1.107-1.321q-0.143-0.179-0.125-0.42t0.196-0.384l12.839-10.696q0.571-0.464 1.357-0.464t1.357 0.464l4.357 3.643v-3.482q0-0.25 0.161-0.411t0.411-0.161h3.429q0.25 0 0.411 0.161t0.161 0.411v7.286l3.911 3.25q0.179 0.143 0.196 0.384t-0.125 0.42z" />
</g>
<g id="icon-tag">
	<path class="path1" d="M8 8q0-0.946-0.67-1.616t-1.616-0.67-1.616 0.67-0.67 1.616 0.67 1.616 1.616 0.67 1.616-0.67 0.67-1.616zM27.054 18.286q0 0.946-0.661 1.607l-8.768 8.786q-0.696 0.661-1.625 0.661-0.946 0-1.607-0.661l-12.768-12.786q-0.679-0.661-1.152-1.804t-0.473-2.089v-7.429q0-0.929 0.679-1.607t1.607-0.679h7.429q0.946 0 2.089 0.473t1.821 1.152l12.768 12.75q0.661 0.696 0.661 1.625z" />
</g>
<g id="icon-tags">
	<path class="path1" d="M8 8q0-0.946-0.67-1.616t-1.616-0.67-1.616 0.67-0.67 1.616 0.67 1.616 1.616 0.67 1.616-0.67 0.67-1.616zM27.054 18.286q0 0.946-0.661 1.607l-8.768 8.786q-0.696 0.661-1.625 0.661-0.946 0-1.607-0.661l-12.768-12.786q-0.679-0.661-1.152-1.804t-0.473-2.089v-7.429q0-0.929 0.679-1.607t1.607-0.679h7.429q0.946 0 2.089 0.473t1.821 1.152l12.768 12.75q0.661 0.696 0.661 1.625zM33.911 18.286q0 0.946-0.661 1.607l-8.768 8.786q-0.696 0.661-1.625 0.661-0.643 0-1.054-0.25t-0.946-0.804l8.393-8.393q0.661-0.661 0.661-1.607 0-0.929-0.661-1.625l-12.768-12.75q-0.679-0.679-1.821-1.152t-2.089-0.473h4q0.946 0 2.089 0.473t1.821 1.152l12.768 12.75q0.661 0.696 0.661 1.625z" />
</g>
<g id="icon-pencil">
	<path class="path1" d="M6.482 27.429l1.625-1.625-4.196-4.196-1.625 1.625v1.911h2.286v2.286h1.911zM15.821 10.857q0-0.393-0.393-0.393-0.179 0-0.304 0.125l-9.679 9.679q-0.125 0.125-0.125 0.304 0 0.393 0.393 0.393 0.179 0 0.304-0.125l9.679-9.679q0.125-0.125 0.125-0.304zM14.857 7.429l7.429 7.429-14.857 14.857h-7.429v-7.429zM27.054 9.143q0 0.946-0.661 1.607l-2.964 2.964-7.429-7.429 2.964-2.946q0.643-0.679 1.607-0.679 0.946 0 1.625 0.679l4.196 4.179q0.661 0.696 0.661 1.625z" />
</g>
<g id="icon-chevron-left">
	<path class="path1" d="M13.25 28.089l-11.643-11.625q-0.661-0.661-0.661-1.616t0.661-1.616l11.643-11.625q0.661-0.661 1.616-0.661t1.616 0.661l1.339 1.339q0.661 0.661 0.661 1.616t-0.661 1.616l-8.679 8.679 8.679 8.661q0.661 0.679 0.661 1.625t-0.661 1.607l-1.339 1.339q-0.661 0.661-1.616 0.661t-1.616-0.661z" />
</g>
<g id="icon-chevron-right">
	<path class="path1" d="M19.625 14.857q0 0.929-0.661 1.625l-11.643 11.625q-0.661 0.661-1.607 0.661t-1.607-0.661l-1.357-1.339q-0.661-0.696-0.661-1.625 0-0.946 0.661-1.607l8.679-8.679-8.679-8.661q-0.661-0.696-0.661-1.625 0-0.946 0.661-1.607l1.357-1.339q0.643-0.679 1.607-0.679t1.607 0.679l11.643 11.625q0.661 0.661 0.661 1.607z" />
</g>
<g id="icon-comment">
	<path class="path1" d="M32 16q0 3.107-2.143 5.741t-5.821 4.161-8.036 1.527q-1.25 0-2.589-0.143-3.536 3.125-8.214 4.321-0.875 0.25-2.036 0.393-0.304 0.036-0.545-0.161t-0.313-0.518v-0.018q-0.054-0.071-0.009-0.214t0.036-0.179 0.080-0.17l0.107-0.161t0.125-0.152 0.143-0.161q0.125-0.143 0.554-0.616t0.616-0.679 0.554-0.705 0.58-0.911 0.482-1.054 0.464-1.357q-2.804-1.589-4.42-3.929t-1.616-5.018q0-2.321 1.268-4.438t3.411-3.652 5.107-2.438 6.214-0.902q4.357 0 8.036 1.527t5.821 4.161 2.143 5.741z" />
</g>
<g id="icon-comments">
	<path class="path1" d="M25.143 13.714q0 2.482-1.679 4.589t-4.58 3.33-6.313 1.223q-1.536 0-3.143-0.286-2.214 1.571-4.964 2.286-0.643 0.161-1.536 0.286h-0.054q-0.196 0-0.366-0.143t-0.205-0.375q-0.018-0.054-0.018-0.116t0.009-0.116 0.036-0.107l0.045-0.089t0.063-0.098 0.071-0.089 0.080-0.089 0.071-0.080q0.089-0.107 0.411-0.446t0.464-0.527 0.402-0.518 0.446-0.688 0.366-0.786q-2.214-1.286-3.482-3.161t-1.268-4q0-2.482 1.679-4.589t4.58-3.33 6.312-1.223 6.313 1.223 4.58 3.33 1.679 4.589zM32 18.286q0 2.143-1.268 4.009t-3.482 3.152q0.179 0.429 0.366 0.786t0.446 0.688 0.402 0.518 0.464 0.527 0.411 0.446q0.018 0.018 0.071 0.080t0.080 0.089 0.071 0.089 0.063 0.098l0.045 0.089t0.036 0.107 0.009 0.116-0.018 0.116q-0.054 0.25-0.232 0.393t-0.393 0.125q-0.893-0.125-1.536-0.286-2.75-0.714-4.964-2.286-1.607 0.286-3.143 0.286-4.839 0-8.429-2.357 1.036 0.071 1.571 0.071 2.875 0 5.518-0.804t4.714-2.304q2.232-1.643 3.429-3.786t1.196-4.536q0-1.375-0.411-2.714 2.304 1.268 3.643 3.179t1.339 4.107z" />
</g>
<g id="icon-twitter">
	<path class="path1" d="M28.929 7.286q-1.196 1.75-2.893 2.982 0.018 0.25 0.018 0.75 0 2.321-0.679 4.634t-2.063 4.437-3.295 3.759-4.607 2.607-5.768 0.973q-4.839 0-8.857-2.589 0.625 0.071 1.393 0.071 4.018 0 7.161-2.464-1.875-0.036-3.357-1.152t-2.036-2.848q0.589 0.089 1.089 0.089 0.768 0 1.518-0.196-2-0.411-3.313-1.991t-1.313-3.67v-0.071q1.214 0.679 2.607 0.732-1.179-0.786-1.875-2.054t-0.696-2.75q0-1.571 0.786-2.911 2.161 2.661 5.259 4.259t6.634 1.777q-0.143-0.679-0.143-1.321 0-2.393 1.688-4.080t4.080-1.688q2.5 0 4.214 1.821 1.946-0.375 3.661-1.393-0.661 2.054-2.536 3.179 1.661-0.179 3.321-0.893z" />
</g>
<g id="icon-facebook">
	<path class="path1" d="M9.125 9.929h4.589l-0.536 5.071h-4.054v14.714h-6.089v-14.714h-3.036v-5.071h3.036v-3.054q0-3.25 1.536-4.92t5.054-1.67h4.054v5.071h-2.536q-0.696 0-1.116 0.116t-0.607 0.42-0.241 0.616-0.054 0.884v2.536z" />
</g>
<g id="icon-chain">
	<path class="path1" d="M26 21.714q0-0.714-0.5-1.214l-3.714-3.714q-0.5-0.5-1.214-0.5-0.75 0-1.286 0.571 0.054 0.054 0.339 0.33t0.384 0.384 0.268 0.339 0.232 0.455 0.063 0.491q0 0.714-0.5 1.214t-1.214 0.5q-0.268 0-0.491-0.063t-0.455-0.232-0.339-0.268-0.384-0.384-0.33-0.339q-0.589 0.554-0.589 1.304 0 0.714 0.5 1.214l3.679 3.696q0.482 0.482 1.214 0.482 0.714 0 1.214-0.464l2.625-2.607q0.5-0.5 0.5-1.196zM13.446 9.125q0-0.714-0.5-1.214l-3.679-3.696q-0.5-0.5-1.214-0.5-0.696 0-1.214 0.482l-2.625 2.607q-0.5 0.5-0.5 1.196 0 0.714 0.5 1.214l3.714 3.714q0.482 0.482 1.214 0.482 0.75 0 1.286-0.554-0.054-0.054-0.339-0.33t-0.384-0.384-0.268-0.339-0.232-0.455-0.063-0.491q0-0.714 0.5-1.214t1.214-0.5q0.268 0 0.491 0.063t0.455 0.232 0.339 0.268 0.384 0.384 0.33 0.339q0.589-0.554 0.589-1.304zM29.429 21.714q0 2.143-1.518 3.625l-2.625 2.607q-1.482 1.482-3.625 1.482-2.161 0-3.643-1.518l-3.679-3.696q-1.482-1.482-1.482-3.625 0-2.196 1.571-3.732l-1.571-1.571q-1.536 1.571-3.714 1.571-2.143 0-3.643-1.5l-3.714-3.714q-1.5-1.5-1.5-3.643t1.518-3.625l2.625-2.607q1.482-1.482 3.625-1.482 2.161 0 3.643 1.518l3.679 3.696q1.482 1.482 1.482 3.625 0 2.196-1.571 3.732l1.571 1.571q1.536-1.571 3.714-1.571 2.143 0 3.643 1.5l3.714 3.714q1.5 1.5 1.5 3.643z" />
</g>
<g id="icon-google-plus">
	<path class="path1" d="M15.643 26.161q0-0.375-0.080-0.723t-0.17-0.643-0.313-0.616-0.375-0.545-0.473-0.527-0.491-0.455-0.571-0.455-0.554-0.411-0.589-0.411-0.545-0.375q-0.304-0.036-0.893-0.036-0.964 0-1.893 0.125t-1.929 0.446-1.75 0.821-1.232 1.339-0.482 1.911q0 1.214 0.634 2.17t1.661 1.5 2.152 0.813 2.268 0.268q1.054 0 2.009-0.223t1.795-0.696 1.33-1.313 0.491-1.964zM13.5 10.768q0-1.071-0.295-2.277t-0.839-2.33-1.5-1.857-2.134-0.732q-1.661 0-2.571 1.232t-0.911 2.946q0 0.839 0.205 1.768t0.634 1.857 1 1.67 1.393 1.205 1.732 0.464q1.732 0 2.509-1.080t0.777-2.866zM11.161 2.286h7.804l-2.411 1.411h-2.411q1.268 0.804 1.964 2.25t0.696 3.018q0 1.321-0.411 2.348t-1 1.652-1.179 1.152-1 1.089-0.411 1.205q0 0.464 0.295 0.911t0.768 0.857 1.045 0.857 1.143 0.991 1.045 1.179 0.768 1.518 0.295 1.902q0 2.857-2.5 5.036-2.714 2.339-7.5 2.339-1.054 0-2.134-0.179t-2.179-0.598-1.938-1.036-1.375-1.589-0.536-2.17q0-1.089 0.661-2.411 0.571-1.143 1.714-1.973t2.589-1.268 2.768-0.643 2.679-0.241q-1.143-1.482-1.143-2.661 0-0.214 0.036-0.42t0.089-0.348 0.143-0.384 0.125-0.384q-0.714 0.089-1.25 0.089-2.661 0-4.563-1.75t-1.902-4.393q0-2.5 1.696-4.473t4.179-2.527q1.679-0.357 3.339-0.357zM29.714 6.857v2.286h-4.571v4.571h-2.286v-4.571h-4.571v-2.286h4.571v-4.571h2.286v4.571h4.571z" />
</g>
<g id="icon-envelope">
	<path class="path1" d="M32 12.679v14.179q0 1.179-0.839 2.018t-2.018 0.839h-26.286q-1.179 0-2.018-0.839t-0.839-2.018v-14.179q0.786 0.875 1.804 1.554 6.464 4.393 8.875 6.161 1.018 0.75 1.652 1.17t1.688 0.857 1.964 0.438h0.036q0.911 0 1.964-0.438t1.688-0.857 1.652-1.17q3.036-2.196 8.893-6.161 1.018-0.696 1.786-1.554zM32 7.429q0 1.411-0.875 2.696t-2.179 2.196q-6.714 4.661-8.357 5.804-0.179 0.125-0.759 0.545t-0.964 0.679-0.929 0.58-1.027 0.482-0.893 0.161h-0.036q-0.411 0-0.893-0.161t-1.027-0.482-0.929-0.58-0.964-0.679-0.759-0.545q-1.625-1.143-4.679-3.259t-3.661-2.545q-1.107-0.75-2.089-2.063t-0.982-2.438q0-1.393 0.741-2.321t2.116-0.929h26.286q1.161 0 2.009 0.839t0.848 2.018z" />
</g>
<g id="icon-linkedin">
	<path class="path1" d="M6.232 11.161v17.696h-5.893v-17.696h5.893zM6.607 5.696q0.018 1.304-0.902 2.179t-2.42 0.875h-0.036q-1.464 0-2.357-0.875t-0.893-2.179q0-1.321 0.92-2.188t2.402-0.866 2.375 0.866 0.911 2.188zM27.429 18.714v10.143h-5.875v-9.464q0-1.875-0.723-2.938t-2.259-1.063q-1.125 0-1.884 0.616t-1.134 1.527q-0.196 0.536-0.196 1.446v9.875h-5.875q0.036-7.125 0.036-11.554t-0.018-5.286l-0.018-0.857h5.875v2.571h-0.036q0.357-0.571 0.732-1t1.009-0.929 1.554-0.777 2.045-0.277q3.054 0 4.911 2.027t1.857 5.938z" />
</g>
<g id="icon-spinner">
	<path class="path1" d="M8.857 24q0 1.071-0.759 1.821t-1.813 0.75q-1.071 0-1.821-0.75t-0.75-1.821 0.75-1.821 1.821-0.75q1.054 0 1.813 0.75t0.759 1.821zM16.571 27.429q0 0.946-0.67 1.616t-1.616 0.67-1.616-0.67-0.67-1.616 0.67-1.616 1.616-0.67 1.616 0.67 0.67 1.616zM5.714 16q0 1.179-0.839 2.018t-2.018 0.839-2.018-0.839-0.839-2.018 0.839-2.018 2.018-0.839 2.018 0.839 0.839 2.018zM24.286 24q0 0.821-0.589 1.411t-1.411 0.589-1.411-0.589-0.589-1.411 0.589-1.411 1.411-0.589 1.411 0.589 0.589 1.411zM9.429 8q0 1.304-0.92 2.223t-2.223 0.92-2.223-0.92-0.92-2.223 0.92-2.223 2.223-0.92 2.223 0.92 0.92 2.223zM17.714 4.571q0 1.429-1 2.429t-2.429 1-2.429-1-1-2.429 1-2.429 2.429-1 2.429 1 1 2.429zM27.429 16q0 0.714-0.5 1.214t-1.214 0.5-1.214-0.5-0.5-1.214 0.5-1.214 1.214-0.5 1.214 0.5 0.5 1.214zM23.714 8q0 0.589-0.42 1.009t-1.009 0.42-1.009-0.42-0.42-1.009 0.42-1.009 1.009-0.42 1.009 0.42 0.42 1.009z" />
</g>
<g id="icon-info">
	<path class="path1" d="M11.429 24v2.286q0 0.464-0.339 0.804t-0.804 0.339h-9.143q-0.464 0-0.804-0.339t-0.339-0.804v-2.286q0-0.464 0.339-0.804t0.804-0.339h1.143v-6.857h-1.143q-0.464 0-0.804-0.339t-0.339-0.804v-2.286q0-0.464 0.339-0.804t0.804-0.339h6.857q0.464 0 0.804 0.339t0.339 0.804v10.286h1.143q0.464 0 0.804 0.339t0.339 0.804zM9.143 3.429v3.429q0 0.464-0.339 0.804t-0.804 0.339h-4.571q-0.464 0-0.804-0.339t-0.339-0.804v-3.429q0-0.464 0.339-0.804t0.804-0.339h4.571q0.464 0 0.804 0.339t0.339 0.804z" />
</g>
<g id="icon-exclamation">
	<path class="path1" d="M9.143 22.286v4q0 0.464-0.339 0.804t-0.804 0.339h-4.571q-0.464 0-0.804-0.339t-0.339-0.804v-4q0-0.464 0.339-0.804t0.804-0.339h4.571q0.464 0 0.804 0.339t0.339 0.804zM9.679 3.429l-0.5 13.714q-0.018 0.464-0.366 0.804t-0.813 0.339h-4.571q-0.464 0-0.813-0.339t-0.366-0.804l-0.5-13.714q-0.018-0.464 0.313-0.804t0.795-0.339h5.714q0.464 0 0.795 0.339t0.313 0.804z" />
</g>
<g id="icon-html5">
	<path class="path1" d="M20.179 10.661l0.286-3.125h-15.786l0.839 9.536h10.929l-0.393 4.071-3.518 0.946-3.5-0.946-0.232-2.5h-3.125l0.393 4.964 6.464 1.786h0.071v-0.018l6.411-1.768 0.893-9.714h-11.5l-0.268-3.232h12.036zM0 2.286h25.143l-2.286 25.679-10.321 2.893-10.25-2.893z" />
</g>
<g id="icon-css3">
	<path class="path1" d="M4.911 2.286h26.875l-4.75 23.804-14.357 4.768-12.464-4.768 1.268-6.357h5.304l-0.518 2.625 7.536 2.875 8.679-2.875 1.214-6.054h-21.571l1.036-5.304h21.589l0.679-3.411h-21.571z" />
</g>
<g id="icon-thumbs-up">
	<path class="path1" d="M4.571 24q0-0.464-0.339-0.804t-0.804-0.339q-0.482 0-0.813 0.339t-0.33 0.804q0 0.482 0.33 0.813t0.813 0.33q0.464 0 0.804-0.33t0.339-0.813zM7.429 14.857v11.429q0 0.464-0.339 0.804t-0.804 0.339h-5.143q-0.464 0-0.804-0.339t-0.339-0.804v-11.429q0-0.464 0.339-0.804t0.804-0.339h5.143q0.464 0 0.804 0.339t0.339 0.804zM28.571 14.857q0 1.536-0.982 2.661 0.268 0.786 0.268 1.357 0.054 1.357-0.768 2.446 0.304 1 0 2.089-0.268 1.018-0.964 1.679 0.161 2-0.875 3.232-1.143 1.357-3.518 1.393h-2.304q-1.179 0-2.571-0.277t-2.17-0.518-2.152-0.705q-2.196-0.768-2.821-0.786-0.464-0.018-0.804-0.348t-0.339-0.795v-11.446q0-0.446 0.321-0.777t0.768-0.366q0.429-0.036 1.357-1.054t1.804-2.161q1.214-1.554 1.804-2.143 0.321-0.321 0.554-0.857t0.313-0.866 0.241-1.080q0.125-0.696 0.223-1.089t0.348-0.929 0.607-0.893q0.339-0.339 0.804-0.339 0.821 0 1.473 0.188t1.071 0.464 0.714 0.723 0.429 0.804 0.214 0.893 0.089 0.804 0.009 0.696q0 0.679-0.17 1.357t-0.339 1.071-0.491 1q-0.054 0.107-0.179 0.321t-0.196 0.393-0.143 0.429h4.946q1.393 0 2.411 1.018t1.018 2.411z" />
</g>
<g id="icon-thumbs-down">
	<path class="path1" d="M4.571 10.286q0 0.464-0.339 0.804t-0.804 0.339q-0.482 0-0.813-0.339t-0.33-0.804q0-0.482 0.33-0.813t0.813-0.33q0.464 0 0.804 0.33t0.339 0.813zM7.429 19.429v-11.429q0-0.464-0.339-0.804t-0.804-0.339h-5.143q-0.464 0-0.804 0.339t-0.339 0.804v11.429q0 0.464 0.339 0.804t0.804 0.339h5.143q0.464 0 0.804-0.339t0.339-0.804zM27.589 16.768q0.982 1.089 0.982 2.661-0.018 1.393-1.027 2.411t-2.402 1.018h-4.946q0.071 0.25 0.143 0.429t0.196 0.393 0.179 0.321q0.321 0.661 0.482 1.018t0.339 1.045 0.179 1.366q0 0.429-0.009 0.696t-0.089 0.804-0.214 0.893-0.429 0.804-0.714 0.723-1.071 0.464-1.473 0.188q-0.464 0-0.804-0.339-0.357-0.357-0.607-0.893t-0.348-0.929-0.223-1.089q-0.161-0.75-0.241-1.080t-0.313-0.866-0.554-0.857q-0.589-0.589-1.804-2.143-0.875-1.143-1.804-2.161t-1.357-1.054q-0.446-0.036-0.768-0.366t-0.321-0.777v-11.446q0-0.464 0.339-0.795t0.804-0.348q0.625-0.018 2.821-0.786 1.375-0.464 2.152-0.705t2.17-0.518 2.571-0.277h2.304q2.375 0.036 3.518 1.393 1.036 1.232 0.875 3.232 0.696 0.661 0.964 1.679 0.304 1.089 0 2.089 0.821 1.089 0.768 2.446 0 0.571-0.268 1.357z" />
</g>
<g id="icon-youtube">
	<path class="path1" d="M17.339 22.214v3.768q0 1.196-0.696 1.196-0.411 0-0.804-0.393v-5.375q0.393-0.393 0.804-0.393 0.696 0 0.696 1.196zM23.375 22.232v0.821h-1.607v-0.821q0-1.214 0.804-1.214t0.804 1.214zM6.125 18.339h1.911v-1.679h-5.571v1.679h1.875v10.161h1.786v-10.161zM11.268 28.5h1.589v-8.821h-1.589v6.75q-0.536 0.75-1.018 0.75-0.321 0-0.375-0.375-0.018-0.054-0.018-0.625v-6.5h-1.589v6.982q0 0.875 0.143 1.304 0.214 0.661 1.036 0.661 0.857 0 1.821-1.089v0.964zM18.929 25.857v-3.518q0-1.304-0.161-1.768-0.304-1-1.268-1-0.893 0-1.661 0.964v-3.875h-1.589v11.839h1.589v-0.857q0.804 0.982 1.661 0.982 0.964 0 1.268-0.982 0.161-0.482 0.161-1.786zM24.964 25.679v-0.232h-1.625q0 0.911-0.036 1.089-0.125 0.643-0.714 0.643-0.821 0-0.821-1.232v-1.554h3.196v-1.839q0-1.411-0.482-2.071-0.696-0.911-1.893-0.911-1.214 0-1.911 0.911-0.5 0.661-0.5 2.071v3.089q0 1.411 0.518 2.071 0.696 0.911 1.929 0.911 1.286 0 1.929-0.946 0.321-0.482 0.375-0.964 0.036-0.161 0.036-1.036zM14.107 9.375v-3.75q0-1.232-0.768-1.232t-0.768 1.232v3.75q0 1.25 0.768 1.25t0.768-1.25zM26.946 22.786q0 4.179-0.464 6.25-0.25 1.054-1.036 1.768t-1.821 0.821q-3.286 0.375-9.911 0.375t-9.911-0.375q-1.036-0.107-1.83-0.821t-1.027-1.768q-0.464-2-0.464-6.25 0-4.179 0.464-6.25 0.25-1.054 1.036-1.768t1.839-0.839q3.268-0.357 9.893-0.357t9.911 0.357q1.036 0.125 1.83 0.839t1.027 1.768q0.464 2 0.464 6.25zM9.125 0h1.821l-2.161 7.125v4.839h-1.786v-4.839q-0.25-1.321-1.089-3.786-0.661-1.839-1.161-3.339h1.893l1.268 4.696zM15.732 5.946v3.125q0 1.446-0.5 2.107-0.661 0.911-1.893 0.911-1.196 0-1.875-0.911-0.5-0.679-0.5-2.107v-3.125q0-1.429 0.5-2.089 0.679-0.911 1.875-0.911 1.232 0 1.893 0.911 0.5 0.661 0.5 2.089zM21.714 3.054v8.911h-1.625v-0.982q-0.946 1.107-1.839 1.107-0.821 0-1.054-0.661-0.143-0.429-0.143-1.339v-7.036h1.625v6.554q0 0.589 0.018 0.625 0.054 0.393 0.375 0.393 0.482 0 1.018-0.768v-6.804h1.625z" />
</g>
<g id="icon-tumblr">
	<path class="path1" d="M6.964 2.286h3.911v6.929h6.5v4.304h-6.5v7.036q0 2.429 0.25 3.071 0.232 0.661 0.929 1.071 0.893 0.554 2.089 0.554 2.089 0 4.143-1.357v4.321q-1.821 0.857-3.179 1.161-1.375 0.339-3.089 0.339-1.875 0-3.321-0.482-1.393-0.446-2.464-1.339-1.036-0.911-1.411-1.875-0.393-0.964-0.393-2.875v-9.625h-3.036v-3.875q1.625-0.536 2.768-1.5 1.143-0.982 1.839-2.357t0.964-3.5z" />
</g>
<g id="icon-skype">
	<path class="path1" d="M20.946 18.982q0-0.893-0.348-1.634t-0.866-1.223-1.304-0.875-1.473-0.607-1.563-0.411l-1.857-0.429q-0.536-0.125-0.786-0.188t-0.625-0.205-0.536-0.286-0.295-0.375-0.134-0.536q0-1.375 2.571-1.375 0.768 0 1.375 0.214t0.964 0.509 0.679 0.598 0.714 0.518 0.857 0.214q0.839 0 1.348-0.571t0.509-1.375q0-0.982-1-1.777t-2.536-1.205-3.25-0.411q-1.214 0-2.357 0.277t-2.134 0.839-1.589 1.554-0.598 2.295q0 1.089 0.339 1.902t1 1.348 1.429 0.866 1.839 0.58l2.607 0.643q1.607 0.393 2 0.643 0.571 0.357 0.571 1.071 0 0.696-0.714 1.152t-1.875 0.455q-0.911 0-1.634-0.286t-1.161-0.688-0.813-0.804-0.821-0.688-0.964-0.286q-0.893 0-1.348 0.536t-0.455 1.339q0 1.643 2.179 2.813t5.196 1.17q1.304 0 2.5-0.33t2.188-0.955 1.58-1.67 0.589-2.348zM27.429 22.857q0 2.839-2.009 4.848t-4.848 2.009q-2.321 0-4.179-1.429-1.375 0.286-2.679 0.286-2.554 0-4.884-0.991t-4.018-2.679-2.679-4.018-0.991-4.884q0-1.304 0.286-2.679-1.429-1.857-1.429-4.179 0-2.839 2.009-4.848t4.848-2.009q2.321 0 4.179 1.429 1.375-0.286 2.679-0.286 2.554 0 4.884 0.991t4.018 2.679 2.679 4.018 0.991 4.884q0 1.304-0.286 2.679 1.429 1.857 1.429 4.179z" />
</g>
</defs>

<g fill="#000000">
	<use xlink:href="#icon-search" transform="translate(0 0)"></use>
	<use xlink:href="#icon-heart" transform="translate(48 0)"></use>
	<use xlink:href="#icon-check" transform="translate(96 0)"></use>
	<use xlink:href="#icon-times" transform="translate(144 0)"></use>
	<use xlink:href="#icon-home" transform="translate(185 0)"></use>
	<use xlink:href="#icon-tag" transform="translate(231 0)"></use>
	<use xlink:href="#icon-tags" transform="translate(279 0)"></use>
	<use xlink:href="#icon-pencil" transform="translate(329 0)"></use>
	<use xlink:href="#icon-chevron-left" transform="translate(377 0)"></use>
	<use xlink:href="#icon-chevron-right" transform="translate(423 0)"></use>
	<use xlink:href="#icon-comment" transform="translate(471 0)"></use>
	<use xlink:href="#icon-comments" transform="translate(519 0)"></use>
	<use xlink:href="#icon-twitter" transform="translate(567 0)"></use>
	<use xlink:href="#icon-facebook" transform="translate(613 0)"></use>
	<use xlink:href="#icon-chain" transform="translate(643 0)"></use>
	<use xlink:href="#icon-google-plus" transform="translate(689 0)"></use>
	<use xlink:href="#icon-envelope" transform="translate(0 48)"></use>
	<use xlink:href="#icon-linkedin" transform="translate(48 48)"></use>
	<use xlink:href="#icon-spinner" transform="translate(96 48)"></use>
	<use xlink:href="#icon-info" transform="translate(144 48)"></use>
	<use xlink:href="#icon-exclamation" transform="translate(185 48)"></use>
	<use xlink:href="#icon-html5" transform="translate(231 48)"></use>
	<use xlink:href="#icon-css3" transform="translate(279 48)"></use>
	<use xlink:href="#icon-thumbs-up" transform="translate(329 48)"></use>
	<use xlink:href="#icon-thumbs-down" transform="translate(377 48)"></use>
	<use xlink:href="#icon-youtube" transform="translate(423 48)"></use>
	<use xlink:href="#icon-tumblr" transform="translate(471 48)"></use>
	<use xlink:href="#icon-skype" transform="translate(519 48)"></use>
</g>

</svg>
