<?xml version="1.0" encoding="utf-8"?>
<!-- Generator: Adobe Illustrator 16.0.0, SVG Export Plug-In . SVG Version: 6.00 Build 0)  -->
<!DOCTYPE svg PUBLIC "-//W3C//DTD SVG 1.1//EN" "http://www.w3.org/Graphics/SVG/1.1/DTD/svg11.dtd">
<svg version="1.1" id="Layer_1" xmlns="http://www.w3.org/2000/svg" xmlns:xlink="http://www.w3.org/1999/xlink" x="0px" y="0px"
	 width="248px" height="248px" viewBox="0 0 248 248" enable-background="new 0 0 248 248" xml:space="preserve">
<title>HTML5 Logo</title>
<polygon fill="#E44D26" points="52.14,228.081 36.15,48.738 211.85,48.738 195.843,228.053 123.893,248 "/>
<polygon fill="#F16529" points="124,232.754 182.14,216.635 195.818,63.402 124,63.402 "/>
<polygon fill="#EBEBEB" points="124,129.918 94.894,129.918 92.884,107.394 124,107.394 124,85.398 123.924,85.398 68.845,85.398 
	69.372,91.299 74.778,151.913 124,151.913 "/>
<polygon fill="#EBEBEB" points="124,187.043 123.904,187.068 99.407,180.454 97.841,162.911 85.938,162.911 75.761,162.911 
	78.842,197.447 123.899,209.955 124,209.928 "/>
<path fill="#FFFFFF" d="M52.498,0h11.178v11.044H73.9V0h11.179v33.443H73.901V22.245H63.676v11.199H52.498L52.498,0L52.498,0z"/>
<path fill="#FFFFFF" d="M99.778,11.09h-9.84V0h30.864v11.09h-9.845v22.353H99.779L99.778,11.09L99.778,11.09z"/>
<path fill="#FFFFFF" d="M125.701,0h11.654l7.17,11.751L151.688,0h11.659v33.443h-11.131V16.867l-7.691,11.891h-0.191l-7.696-11.891
	v16.577h-10.937V0z"/>
<path fill="#FFFFFF" d="M168.911,0h11.182v22.389h15.72v11.055h-26.901V0z"/>
<polygon fill="#FFFFFF" points="123.924,129.918 123.924,151.913 151.01,151.913 148.456,180.439 123.924,187.062 123.924,209.945 
	169.017,197.447 169.348,193.731 174.516,135.824 175.053,129.918 169.125,129.918 "/>
<polygon fill="#FFFFFF" points="123.924,85.398 123.924,99.059 123.924,107.34 123.924,107.394 176.983,107.394 176.983,107.394 
	177.055,107.394 177.495,102.45 178.498,91.299 179.023,85.398 "/>
</svg>
