<?xml version="1.0" encoding="utf-8"?>
<!-- Generator: Adobe Illustrator 16.0.0, SVG Export Plug-In . SVG Version: 6.00 Build 0)  -->
<!DOCTYPE svg PUBLIC "-//W3C//DTD SVG 1.1//EN" "http://www.w3.org/Graphics/SVG/1.1/DTD/svg11.dtd">
<svg version="1.1" id="Layer_1" xmlns="http://www.w3.org/2000/svg" xmlns:xlink="http://www.w3.org/1999/xlink" x="0px" y="0px"
	 width="248px" height="248px" viewBox="0 0 248 248" enable-background="new 0 0 248 248" xml:space="preserve">
<path fill="#FA5652" d="M72.272,402.833"/>
<g>
	<g>
		<g>
			<path fill="#FFFFFF" d="M192.82,203.326l-11.655,16.141l-1.054-4.223h-7.653c0,0,0.76,3.844,1.318,5.807
				c0.556,1.939,1.541,3.871,1.584,5.807c0.048,2.213-1.11,6.367-1.11,6.367l7.443-0.037c0,0,0.803-3.986,1.582-5.805
				c0.311-0.723,0.921-1.305,1.32-1.846c1.235-1.672,16.36-22.166,16.36-22.166L192.82,203.326z"/>
			<path fill="#FFFFFF" d="M177.416,207.648c-1.636-0.984-5.525-0.559-8.854-0.559h-5.152c-3.227,0-5.139-0.215-5.465,1.031
				c-1.008,3.848-5.278,25.066-5.278,25.066h6.861l4.484-19.525h3.695c4.275,0,12.131-0.115,12.131-0.115
				S178.918,208.555,177.416,207.648"/>
			<path fill="#FFFFFF" d="M151.149,209.725c-1.438-2.004-4.381-2.701-6.332-2.902c-5.178-0.531-9.491,0.855-11.874,2.639
				c-0.72,0.539-1.318,0.971-1.848,1.584c-0.188,0.223-0.396,0.469-0.57,0.725c-0.154,0.217-0.337,0.365-0.484,0.594
				c-0.219,0.332-0.451,0.961-0.726,1.518c-0.219,0.445-0.428,0.971-0.593,1.387c-1.432,3.57-2.889,10.24-1.584,13.719
				c0.193,0.516,0.623,1.168,0.771,1.367c0.185,0.246,0.353,0.533,0.548,0.746c0.716,0.77,1.774,1.313,2.904,1.582
				c5.717,1.365,17.15,0.791,17.15,0.791l1.4-6.205c0,0-8.091,0.363-11.955-0.127c-0.578-0.074-2.188-0.156-3.014-0.879
				c-0.717-0.627-1.564-2.113-0.944-3.078c0.441-0.689,2.214-0.484,3.693-0.527c4.764-0.146,13.457,0,13.457,0
				s1.666-7.406,0.792-10.557C151.726,211.324,151.535,210.262,151.149,209.725 M145.477,217.16l-10.224-0.068
				c0,0-0.116-4.416,5.845-4.229c2.111,0.064,2.852,0.354,3.654,1.592C145.691,215.904,145.477,217.16,145.477,217.16"/>
			<path fill="#FFFFFF" d="M120.476,207.066l-4.75,19.791c0,0-2.627,0.018-3.43,0c-2.533-0.061-3.364-0.145-3.958-1.322
				c-0.625-1.236-0.026-2.813,0.264-4.484c0.81-4.672,2.758-14.025,2.758-14.025l-6.893,0.064c0,0-1.312,6.008-1.934,8.947
				c-0.882,4.154-2.757,10.266-0.792,13.984c2.026,3.828,6.79,3.166,12.137,3.166h7.652c1.889-8.574,5.597-26.162,5.597-26.162
				L120.476,207.066z"/>
			<path fill="#FFFFFF" d="M98.575,209.967c-0.406-2.947-2.33-6.154-4.441-7.498c-0.087-0.053-0.464-0.354-0.572-0.416
				c-1.562-0.906-4.063-1.67-5.805-1.848c-8.98-0.92-14.336,3.07-17.415,8.443c-1.212,2.111-2.014,4.416-2.639,6.861
				c-0.691,2.707-1.187,5.99-0.792,8.971c0.237,1.787,1.219,4.324,2.64,5.807c3.496,3.643,10.351,3.164,17.678,3.164
				c2.246,0,7.631-0.043,9.257-0.084c0.525-0.016,2.031-6.15,1.897-6.348c-0.13-0.154-1.924,0.061-3.971-0.123
				C96.419,221.592,99.335,215.492,98.575,209.967 M89.34,219.73c-0.665,2.357-1.319,4.74-2.111,6.861
				c-5.333-0.031-10.286,0.697-11.874-2.639c-0.897-1.887-0.493-4.441,0-6.861c0.663-3.258,1.296-5.625,3.167-7.652
				c1.446-1.563,5.083-3.482,8.971-2.109c1.29,0.455,3.291,2.629,3.431,5.012C91.052,214.572,90.036,217.256,89.34,219.73"/>
			<path fill="#FFFFFF" d="M57.412,213.398H64.8c0.467-1.994,0.911-4.283,1.354-6.301c-2.596,0-4.795-0.031-7.159-0.031
				C58.422,208.988,57.984,211.188,57.412,213.398"/>
			<path fill="#FFFFFF" d="M54.246,227.383c-1.09,5.125-1.232,10.443-6.861,9.764c-0.539,1.98-1.222,4.631-1.826,6.84
				c2.309,0.047,4.434,0.225,6.312,0.02c1.156-0.127,3.243-0.625,3.694-1.053c0.183-0.176,0.309-0.094,0.528-0.266
				c2.449-1.912,3.053-4.557,3.958-8.178c1.446-5.791,3.291-14.107,4.222-19.266h-7.124
				C56.787,216.434,54.876,224.424,54.246,227.383"/>
		</g>
	</g>
</g>
<g>
	<path fill="#136BB0" d="M51.003,39.516l0.861-2.8c-0.482,0,3.796-6.573,3.314-6.573c-31.309,30.301-28.593,70.87-13.538,100.036
		c10.5,20.341,29.717,39.383,52.572,49.647c10.587,4.75,26.797,9.112,43.811,8.762c36.39-0.759,61.902-17.958,76.302-45.998
		l0.848-2.191c-12.705,12.806-33.413,21.701-49.65,23.366C97.951,170.685,28.439,110.155,51.003,39.516"/>
	<path fill="#136BB0" d="M140.696,49.858c8.924,14.355,25.965,26.971,52.571,21.307c6.718-1.432,21.936-12.881,24.578-18.941
		c-22.81,15.522-36.962,10.324-43.664,8.353c-1.476-0.422-4.893-1.957-8.075-3.869c-7.066-4.25-10.561-6.193-16.063-14.196
		c-3.022-4.395-6.047-11.376-7.038-15.377c-1.637-6.615-1.184-16.793,1.927-25.554c-10.324,9.212-11.914,27.014-8.456,38.785
		C136.913,41.855,139.366,47.712,140.696,49.858"/>
	<path fill="#136BB0" d="M147.999,125.793c35.72,4.776,62.355-10.236,71.555-33.586c-10.516,11.155-28.273,19.102-45.271,18.983
		c-38.013-0.246-80.728-34.302-75.936-81.779c0.408-4.087,2.043-10.499,6.424-18.809c-12.603,15.89-20.253,28.99-18.107,50.938
		C89.598,91.695,118.091,121.793,147.999,125.793"/>
</g>
</svg>
