<?xml version="1.0" encoding="utf-8"?>
<!-- Generator: Adobe Illustrator 16.0.0, SVG Export Plug-In . SVG Version: 6.00 Build 0)  -->
<!DOCTYPE svg PUBLIC "-//W3C//DTD SVG 1.1//EN" "http://www.w3.org/Graphics/SVG/1.1/DTD/svg11.dtd">
<svg version="1.1" id="Layer_1" xmlns="http://www.w3.org/2000/svg" xmlns:xlink="http://www.w3.org/1999/xlink" x="0px" y="0px"
	 width="248px" height="248px" viewBox="0 0 248 248" enable-background="new 0 0 248 248" xml:space="preserve">
<path fill="#FA5652" d="M73,404"/>
<circle fill="#6181B6" cx="124" cy="124" r="124"/>
<g>
	<g>
		<path fill="#FFFFFF" d="M70.899,104.922c5.571,0,9.284,1.028,11.14,3.085c1.855,2.057,2.297,5.587,1.326,10.591
			c-1.014,5.21-2.966,8.929-5.86,11.156c-2.894,2.229-7.297,3.342-13.21,3.342h-8.919l5.476-28.174H70.899z M35.17,161.615h14.664
			l3.478-17.897h12.56c5.542,0,10.102-0.58,13.681-1.746c3.579-1.164,6.832-3.116,9.76-5.856c2.457-2.259,4.445-4.75,5.968-7.475
			c1.521-2.723,2.602-5.728,3.24-9.015c1.551-7.979,0.381-14.195-3.509-18.647c-3.89-4.453-10.078-6.679-18.561-6.679H48.254
			L35.17,161.615z"/>
		<path fill="#FFFFFF" d="M109.292,76.402h14.548l-3.478,17.896h12.96c8.155,0,13.781,1.423,16.877,4.267
			c3.096,2.845,4.022,7.455,2.786,13.827l-6.088,31.325h-14.779l5.787-29.784c0.659-3.388,0.417-5.7-0.727-6.932
			c-1.144-1.232-3.577-1.849-7.3-1.849h-11.627l-7.495,38.565H96.208L109.292,76.402z"/>
		<path fill="#FFFFFF" d="M185.355,104.922c5.57,0,9.284,1.028,11.14,3.085c1.855,2.057,2.297,5.587,1.326,10.591
			c-1.014,5.21-2.966,8.929-5.859,11.156c-2.894,2.229-7.298,3.342-13.211,3.342h-8.919l5.476-28.174H185.355z M149.626,161.615
			h14.665l3.477-17.897h12.561c5.543,0,10.102-0.58,13.681-1.746c3.58-1.164,6.833-3.116,9.761-5.856
			c2.457-2.259,4.445-4.75,5.968-7.475c1.521-2.723,2.602-5.728,3.241-9.015c1.551-7.979,0.381-14.195-3.509-18.647
			s-10.078-6.679-18.562-6.679H162.71L149.626,161.615z"/>
	</g>
</g>
</svg>
