<?xml version="1.0" encoding="utf-8"?>
<!-- Generator: Adobe Illustrator 17.0.0, SVG Export Plug-In . SVG Version: 6.00 Build 0)  -->
<!DOCTYPE svg PUBLIC "-//W3C//DTD SVG 1.1//EN" "http://www.w3.org/Graphics/SVG/1.1/DTD/svg11.dtd">
<svg version="1.1" id="Layer_1" xmlns="http://www.w3.org/2000/svg" xmlns:xlink="http://www.w3.org/1999/xlink" x="0px" y="0px"
	 width="248px" height="248px" viewBox="0 0 248 248" enable-background="new 0 0 248 248" xml:space="preserve">
<rect fill="#2FC9F8" width="248" height="248"/>
<rect x="19" y="19" fill="#3C3A55" width="210" height="210"/>
<g enable-background="new    ">
	<path fill="#2FC9F8" d="M63.66,74.991c6.58-1.12,15.82-1.96,28.84-1.96c13.16,0,22.54,2.52,28.84,7.56
		c6.019,4.761,10.08,12.601,10.08,21.84c0,9.24-3.08,17.08-8.68,22.4c-7.28,6.86-18.06,9.939-30.66,9.939
		c-2.8,0-5.32-0.14-7.28-0.42v33.74H63.66V74.991z M84.8,117.831c1.82,0.42,4.06,0.56,7.14,0.56c11.34,0,18.34-5.739,18.34-15.399
		c0-8.68-6.02-13.86-16.66-13.86c-4.34,0-7.28,0.42-8.82,0.84V117.831z"/>
	<path fill="#2FC9F8" d="M141.22,149.471c3.92,2.38,12.04,5.181,18.34,5.181c6.439,0,9.1-2.24,9.1-5.74s-2.1-5.181-10.08-7.84
		c-14.14-4.761-19.6-12.46-19.46-20.58c0-12.74,10.92-22.4,27.86-22.4c7.979,0,15.12,1.82,19.32,3.92l-3.78,14.7
		c-3.08-1.68-8.96-3.92-14.84-3.92c-5.181,0-8.12,2.1-8.12,5.6c0,3.221,2.66,4.9,11.06,7.841c13.021,4.479,18.48,11.06,18.62,21.14
		c0,12.74-10.08,22.12-29.68,22.12c-8.96,0-16.94-1.96-22.12-4.761L141.22,149.471z"/>
</g>
</svg>
