<?xml version="1.0" encoding="utf-8"?>
<!-- Generator: Adobe Illustrator 17.0.0, SVG Export Plug-In . SVG Version: 6.00 Build 0)  -->
<!DOCTYPE svg PUBLIC "-//W3C//DTD SVG 1.1//EN" "http://www.w3.org/Graphics/SVG/1.1/DTD/svg11.dtd">
<svg version="1.1" id="Layer_1" xmlns="http://www.w3.org/2000/svg" xmlns:xlink="http://www.w3.org/1999/xlink" x="0px" y="0px"
	 width="248px" height="248px" viewBox="0 0 248 248" enable-background="new 0 0 248 248" xml:space="preserve">
<circle fill="#FFFFFF" cx="123.828" cy="125.251" r="121.985"/>
<g>
	<path fill="#21759B" d="M15.109,125.102c0,43.012,24.996,80.189,61.249,97.799L24.518,80.875
		C18.488,94.39,15.109,109.347,15.109,125.102"/>
	<path fill="#21759B" d="M197.14,119.622c0-13.435-4.828-22.733-8.958-29.971c-5.51-8.955-10.675-16.532-10.675-25.487
		c0-9.988,7.573-19.289,18.249-19.289c0.479,0,0.937,0.058,1.407,0.088c-19.335-17.715-45.093-28.532-73.384-28.532
		c-37.966,0-71.365,19.482-90.796,48.98c2.552,0.082,4.955,0.131,6.995,0.131c11.363,0,28.961-1.381,28.961-1.381
		c5.855-0.343,6.547,8.263,0.696,8.956c0,0-5.89,0.687-12.438,1.032l39.57,117.712l23.785-71.324l-16.93-46.389
		c-5.854-0.343-11.398-1.032-11.398-1.032c-5.858-0.346-5.172-9.297,0.689-8.956c0,0,17.943,1.381,28.62,1.381
		c11.36,0,28.963-1.381,28.963-1.381c5.858-0.343,6.549,8.263,0.692,8.956c0,0-5.895,0.687-12.436,1.032l39.273,116.818
		l10.842-36.219C193.561,139.712,197.14,128.921,197.14,119.622"/>
	<path fill="#21759B" d="M125.687,134.606L93.079,229.35c9.737,2.864,20.034,4.429,30.7,4.429c12.655,0,24.792-2.183,36.086-6.158
		c-0.289-0.467-0.558-0.963-0.778-1.5L125.687,134.606z"/>
	<path fill="#21759B" d="M219.137,72.967c0.469,3.461,0.731,7.175,0.731,11.175c0,11.023-2.067,23.418-8.267,38.922l-33.188,95.967
		c32.308-18.837,54.035-53.84,54.035-93.93C232.448,106.208,227.621,88.445,219.137,72.967"/>
</g>
</svg>
