<?xml version="1.0" encoding="utf-8"?>
<!-- Generator: Adobe Illustrator 16.0.0, SVG Export Plug-In . SVG Version: 6.00 Build 0)  -->
<!DOCTYPE svg PUBLIC "-//W3C//DTD SVG 1.1//EN" "http://www.w3.org/Graphics/SVG/1.1/DTD/svg11.dtd">
<svg version="1.1" id="Layer_1" xmlns="http://www.w3.org/2000/svg" xmlns:xlink="http://www.w3.org/1999/xlink" x="0px" y="0px"
	 width="248px" height="248px" viewBox="0 0 248 248" enable-background="new 0 0 248 248" xml:space="preserve">
<path fill="#FA5652" d="M72.272,402.833"/>
<circle fill="#FFFFFF" cx="123.828" cy="125.251" r="121.985"/>
<g>
	<g>
		<g>
			<g>
				<defs>
					<rect id="SVGID_1_" x="-38.16" y="-36.833" width="322.319" height="322.318"/>
				</defs>
				<clipPath id="SVGID_2_">
					<use xlink:href="#SVGID_1_"  overflow="visible"/>
				</clipPath>
				<g clip-path="url(#SVGID_2_)">
					<g>
						<g>
							<defs>
								<rect id="SVGID_3_" x="-38.16" y="-36.833" width="322.319" height="322.318"/>
							</defs>
							<defs>
								<rect id="SVGID_4_" x="-38.16" y="-36.833" width="322.319" height="322.318"/>
							</defs>
							<defs>
								<rect id="SVGID_5_" x="-38.16" y="-36.833" width="322.319" height="322.318"/>
							</defs>
							<defs>
								<rect id="SVGID_6_" x="-38.16" y="-36.833" width="322.319" height="322.318"/>
							</defs>
							<defs>
								<rect id="SVGID_7_" x="-38.16" y="-36.833" width="322.319" height="322.318"/>
							</defs>
							<defs>
								<rect id="SVGID_8_" x="-38.16" y="-36.833" width="322.319" height="322.318"/>
							</defs>
							<defs>
								<rect id="SVGID_9_" x="-38.16" y="-36.833" width="322.319" height="322.318"/>
							</defs>
							<defs>
								<rect id="SVGID_10_" x="-38.16" y="-36.833" width="322.319" height="322.318"/>
							</defs>
							<defs>
								<rect id="SVGID_11_" x="-38.16" y="-36.833" width="322.319" height="322.318"/>
							</defs>
							<defs>
								<rect id="SVGID_12_" x="-38.16" y="-36.833" width="322.319" height="322.318"/>
							</defs>
							<defs>
								<rect id="SVGID_13_" x="-38.16" y="-36.833" width="322.319" height="322.318"/>
							</defs>
							<defs>
								<rect id="SVGID_14_" x="-38.16" y="-36.833" width="322.319" height="322.318"/>
							</defs>
							<defs>
								<rect id="SVGID_15_" x="-38.16" y="-36.833" width="322.319" height="322.318"/>
							</defs>
							<defs>
								<rect id="SVGID_16_" x="-38.16" y="-36.833" width="322.319" height="322.318"/>
							</defs>
							<defs>
								<rect id="SVGID_17_" x="-38.16" y="-36.833" width="322.319" height="322.318"/>
							</defs>
							<defs>
								<rect id="SVGID_18_" x="-38.16" y="-36.833" width="322.319" height="322.318"/>
							</defs>
							<defs>
								<rect id="SVGID_19_" x="-38.16" y="-36.833" width="322.319" height="322.318"/>
							</defs>
							<defs>
								<rect id="SVGID_20_" x="-38.16" y="-36.833" width="322.319" height="322.318"/>
							</defs>
							<defs>
								<rect id="SVGID_21_" x="-38.16" y="-36.833" width="322.319" height="322.318"/>
							</defs>
							<defs>
								<rect id="SVGID_22_" x="-38.16" y="-36.833" width="322.319" height="322.318"/>
							</defs>
							<defs>
								<rect id="SVGID_23_" x="-38.16" y="-36.833" width="322.319" height="322.318"/>
							</defs>
							<defs>
								<rect id="SVGID_24_" x="-38.16" y="-36.833" width="322.319" height="322.318"/>
							</defs>
							<defs>
								<rect id="SVGID_25_" x="-38.16" y="-36.833" width="322.319" height="322.318"/>
							</defs>
							<defs>
								<rect id="SVGID_26_" x="-38.16" y="-36.833" width="322.319" height="322.318"/>
							</defs>
							<defs>
								<rect id="SVGID_27_" x="-38.16" y="-36.833" width="322.319" height="322.318"/>
							</defs>
							<defs>
								<rect id="SVGID_28_" x="-38.16" y="-36.833" width="322.319" height="322.318"/>
							</defs>
							<defs>
								<rect id="SVGID_29_" x="-38.16" y="-36.833" width="322.319" height="322.318"/>
							</defs>
							<defs>
								<rect id="SVGID_30_" x="-38.16" y="-36.833" width="322.319" height="322.318"/>
							</defs>
							<defs>
								<rect id="SVGID_31_" x="-38.16" y="-36.833" width="322.319" height="322.318"/>
							</defs>
							<defs>
								<rect id="SVGID_32_" x="-38.16" y="-36.833" width="322.319" height="322.318"/>
							</defs>
							<defs>
								<rect id="SVGID_33_" x="-38.16" y="-36.833" width="322.319" height="322.318"/>
							</defs>
							<defs>
								<rect id="SVGID_34_" x="-38.16" y="-36.833" width="322.319" height="322.318"/>
							</defs>
							<defs>
								<rect id="SVGID_35_" x="-38.16" y="-36.833" width="322.319" height="322.318"/>
							</defs>
							<defs>
								<rect id="SVGID_36_" x="-38.16" y="-36.833" width="322.319" height="322.318"/>
							</defs>
							<defs>
								<rect id="SVGID_37_" x="-38.16" y="-36.833" width="322.319" height="322.318"/>
							</defs>
							<clipPath id="SVGID_38_">
								<use xlink:href="#SVGID_3_"  overflow="visible"/>
							</clipPath>
							<clipPath id="SVGID_39_" clip-path="url(#SVGID_38_)">
								<use xlink:href="#SVGID_4_"  overflow="visible"/>
							</clipPath>
							<clipPath id="SVGID_40_" clip-path="url(#SVGID_39_)">
								<use xlink:href="#SVGID_5_"  overflow="visible"/>
							</clipPath>
							<clipPath id="SVGID_41_" clip-path="url(#SVGID_40_)">
								<use xlink:href="#SVGID_6_"  overflow="visible"/>
							</clipPath>
							<clipPath id="SVGID_42_" clip-path="url(#SVGID_41_)">
								<use xlink:href="#SVGID_7_"  overflow="visible"/>
							</clipPath>
							<clipPath id="SVGID_43_" clip-path="url(#SVGID_42_)">
								<use xlink:href="#SVGID_8_"  overflow="visible"/>
							</clipPath>
							<clipPath id="SVGID_44_" clip-path="url(#SVGID_43_)">
								<use xlink:href="#SVGID_9_"  overflow="visible"/>
							</clipPath>
							<clipPath id="SVGID_45_" clip-path="url(#SVGID_44_)">
								<use xlink:href="#SVGID_10_"  overflow="visible"/>
							</clipPath>
							<clipPath id="SVGID_46_" clip-path="url(#SVGID_45_)">
								<use xlink:href="#SVGID_11_"  overflow="visible"/>
							</clipPath>
							<clipPath id="SVGID_47_" clip-path="url(#SVGID_46_)">
								<use xlink:href="#SVGID_12_"  overflow="visible"/>
							</clipPath>
							<clipPath id="SVGID_48_" clip-path="url(#SVGID_47_)">
								<use xlink:href="#SVGID_13_"  overflow="visible"/>
							</clipPath>
							<clipPath id="SVGID_49_" clip-path="url(#SVGID_48_)">
								<use xlink:href="#SVGID_14_"  overflow="visible"/>
							</clipPath>
							<clipPath id="SVGID_50_" clip-path="url(#SVGID_49_)">
								<use xlink:href="#SVGID_15_"  overflow="visible"/>
							</clipPath>
							<clipPath id="SVGID_51_" clip-path="url(#SVGID_50_)">
								<use xlink:href="#SVGID_16_"  overflow="visible"/>
							</clipPath>
							<clipPath id="SVGID_52_" clip-path="url(#SVGID_51_)">
								<use xlink:href="#SVGID_17_"  overflow="visible"/>
							</clipPath>
							<clipPath id="SVGID_53_" clip-path="url(#SVGID_52_)">
								<use xlink:href="#SVGID_18_"  overflow="visible"/>
							</clipPath>
							<clipPath id="SVGID_54_" clip-path="url(#SVGID_53_)">
								<use xlink:href="#SVGID_19_"  overflow="visible"/>
							</clipPath>
							<clipPath id="SVGID_55_" clip-path="url(#SVGID_54_)">
								<use xlink:href="#SVGID_20_"  overflow="visible"/>
							</clipPath>
							<clipPath id="SVGID_56_" clip-path="url(#SVGID_55_)">
								<use xlink:href="#SVGID_21_"  overflow="visible"/>
							</clipPath>
							<clipPath id="SVGID_57_" clip-path="url(#SVGID_56_)">
								<use xlink:href="#SVGID_22_"  overflow="visible"/>
							</clipPath>
							<clipPath id="SVGID_58_" clip-path="url(#SVGID_57_)">
								<use xlink:href="#SVGID_23_"  overflow="visible"/>
							</clipPath>
							<clipPath id="SVGID_59_" clip-path="url(#SVGID_58_)">
								<use xlink:href="#SVGID_24_"  overflow="visible"/>
							</clipPath>
							<clipPath id="SVGID_60_" clip-path="url(#SVGID_59_)">
								<use xlink:href="#SVGID_25_"  overflow="visible"/>
							</clipPath>
							<clipPath id="SVGID_61_" clip-path="url(#SVGID_60_)">
								<use xlink:href="#SVGID_26_"  overflow="visible"/>
							</clipPath>
							<clipPath id="SVGID_62_" clip-path="url(#SVGID_61_)">
								<use xlink:href="#SVGID_27_"  overflow="visible"/>
							</clipPath>
							<clipPath id="SVGID_63_" clip-path="url(#SVGID_62_)">
								<use xlink:href="#SVGID_28_"  overflow="visible"/>
							</clipPath>
							<clipPath id="SVGID_64_" clip-path="url(#SVGID_63_)">
								<use xlink:href="#SVGID_29_"  overflow="visible"/>
							</clipPath>
							<clipPath id="SVGID_65_" clip-path="url(#SVGID_64_)">
								<use xlink:href="#SVGID_30_"  overflow="visible"/>
							</clipPath>
							<clipPath id="SVGID_66_" clip-path="url(#SVGID_65_)">
								<use xlink:href="#SVGID_31_"  overflow="visible"/>
							</clipPath>
							<clipPath id="SVGID_67_" clip-path="url(#SVGID_66_)">
								<use xlink:href="#SVGID_32_"  overflow="visible"/>
							</clipPath>
							<clipPath id="SVGID_68_" clip-path="url(#SVGID_67_)">
								<use xlink:href="#SVGID_33_"  overflow="visible"/>
							</clipPath>
							<clipPath id="SVGID_69_" clip-path="url(#SVGID_68_)">
								<use xlink:href="#SVGID_34_"  overflow="visible"/>
							</clipPath>
							<clipPath id="SVGID_70_" clip-path="url(#SVGID_69_)">
								<use xlink:href="#SVGID_35_"  overflow="visible"/>
							</clipPath>
							<clipPath id="SVGID_71_" clip-path="url(#SVGID_70_)">
								<use xlink:href="#SVGID_36_"  overflow="visible"/>
							</clipPath>
							<clipPath id="SVGID_72_" clip-path="url(#SVGID_71_)">
								<use xlink:href="#SVGID_37_"  overflow="visible"/>
							</clipPath>
							<path clip-path="url(#SVGID_72_)" fill="#21759B" d="M15.109,125.102c0,43.012,24.996,80.189,61.249,97.799L24.518,80.875
								C18.488,94.39,15.109,109.347,15.109,125.102"/>
							<path clip-path="url(#SVGID_72_)" fill="#21759B" d="M197.14,119.622c0-13.435-4.828-22.733-8.958-29.971
								c-5.51-8.955-10.675-16.532-10.675-25.487c0-9.988,7.573-19.289,18.249-19.289c0.479,0,0.937,0.058,1.407,0.088
								c-19.335-17.715-45.093-28.532-73.384-28.532c-37.966,0-71.365,19.482-90.796,48.98c2.552,0.082,4.955,0.131,6.995,0.131
								c11.363,0,28.961-1.381,28.961-1.381c5.855-0.343,6.547,8.263,0.696,8.956c0,0-5.89,0.687-12.438,1.032l39.57,117.712
								l23.785-71.324l-16.93-46.389c-5.854-0.343-11.398-1.032-11.398-1.032c-5.858-0.346-5.172-9.297,0.689-8.956
								c0,0,17.943,1.381,28.62,1.381c11.36,0,28.963-1.381,28.963-1.381c5.858-0.343,6.549,8.263,0.692,8.956
								c0,0-5.895,0.687-12.436,1.032l39.273,116.818l10.842-36.219C193.561,139.712,197.14,128.921,197.14,119.622"/>
							<path clip-path="url(#SVGID_72_)" fill="#21759B" d="M125.687,134.606l-32.608,94.744c9.737,2.864,20.034,4.429,30.7,4.429
								c12.655,0,24.792-2.183,36.086-6.158c-0.289-0.467-0.558-0.963-0.778-1.5L125.687,134.606z"/>
							<path clip-path="url(#SVGID_72_)" fill="#21759B" d="M219.137,72.967c0.469,3.461,0.731,7.175,0.731,11.175
								c0,11.023-2.067,23.418-8.267,38.922l-33.188,95.967c32.308-18.837,54.035-53.84,54.035-93.93
								C232.448,106.208,227.621,88.445,219.137,72.967"/>
						</g>
					</g>
				</g>
			</g>
		</g>
	</g>
</g>
</svg>
